<svg xmlns="http://www.w3.org/2000/svg" xmlns:xlink="http://www.w3.org/1999/xlink" width="500" zoomAndPan="magnify" viewBox="0 0 375 374.999991" height="500" preserveAspectRatio="xMidYMid meet" version="1.2"><defs><clipPath id="4e75aeb149"><path d="M 18.328125 36.660156 L 356.671875 36.660156 L 356.671875 375 L 18.328125 375 Z M 18.328125 36.660156 "/></clipPath><clipPath id="311e7e05ee"><path d="M 187.5 36.660156 C 94.070312 36.660156 18.328125 112.398438 18.328125 205.828125 C 18.328125 299.257812 94.070312 375 187.5 375 C 280.929688 375 356.671875 299.257812 356.671875 205.828125 C 356.671875 112.398438 280.929688 36.660156 187.5 36.660156 Z M 187.5 36.660156 "/></clipPath><clipPath id="6396c9d891"><path d="M 81 0 L 308 0 L 308 153.917969 L 81 153.917969 Z M 81 0 "/></clipPath><clipPath id="fa63d35b65"><path d="M 81 0 L 309 0 L 309 153.917969 L 81 153.917969 Z M 81 0 "/></clipPath><clipPath id="7563ba82ad"><path d="M 65 105 L 314 105 L 314 325.410156 L 65 325.410156 Z M 65 105 "/></clipPath><clipPath id="f429d88739"><path d="M 71 105 L 301 105 L 301 325.410156 L 71 325.410156 Z M 71 105 "/></clipPath><clipPath id="11c74175b6"><path d="M 64 106 L 314 106 L 314 325.410156 L 64 325.410156 Z M 64 106 "/></clipPath><filter x="0%" y="0%" width="100%" filterUnits="objectBoundingBox" id="b53130d50a" height="100%"><feColorMatrix values="0 0 0 0 1 0 0 0 0 1 0 0 0 0 1 0 0 0 1 0" type="matrix" in="SourceGraphic"/></filter><clipPath id="327a50008d"><path d="M 1 0.558594 L 249.441406 0.558594 L 249.441406 219.410156 L 1 219.410156 Z M 1 0.558594 "/></clipPath><clipPath id="66dbbf9b2c"><rect x="0" width="250" y="0" height="220"/></clipPath><clipPath id="78cb0d5987"><path d="M 65 106 L 315 106 L 315 325.410156 L 65 325.410156 Z M 65 106 "/></clipPath><clipPath id="2d6e3614dc"><path d="M 30 102 L 317 102 L 317 325.410156 L 30 325.410156 Z M 30 102 "/></clipPath></defs><g id="c16b088329"><g clip-rule="nonzero" clip-path="url(#4e75aeb149)"><g clip-rule="nonzero" clip-path="url(#311e7e05ee)"><path style=" stroke:none;fill-rule:nonzero;fill:#ec4899;fill-opacity:1;" d="M 18.328125 36.660156 L 356.671875 36.660156 L 356.671875 375 L 18.328125 375 Z M 18.328125 36.660156 "/></g></g><g clip-rule="nonzero" clip-path="url(#6396c9d891)"><path style=" stroke:none;fill-rule:evenodd;fill:#ffffff;fill-opacity:1;" d="M 137.667969 33.847656 C 137.78125 33.367188 137.902344 32.898438 138.03125 32.429688 C 138.628906 30.28125 139.414062 28.253906 140.320312 26.335938 C 144.179688 18.164062 150.503906 12.027344 158.152344 7.839844 C 165.492188 3.824219 174.070312 1.613281 182.871094 1.074219 C 195.84375 0.28125 209.316406 3.144531 220.070312 9.253906 C 227.914062 13.703125 234.308594 19.886719 238.089844 27.597656 C 238.480469 28.398438 238.875 29.1875 239.28125 29.953125 C 257.011719 23.59375 271.992188 25.21875 283.375 31.378906 C 300.890625 40.859375 309.949219 61.1875 307.40625 80.460938 C 304.644531 101.386719 288.289062 121.195312 254.117188 124.136719 L 254.117188 151.195312 C 254.117188 151.863281 253.761719 152.480469 253.183594 152.820312 C 252.605469 153.15625 251.890625 153.160156 251.308594 152.832031 C 214.039062 131.726562 175.3125 131.628906 135.109375 152.859375 C 134.523438 153.164062 133.824219 153.148438 133.257812 152.804688 C 132.695312 152.464844 132.351562 151.851562 132.351562 151.195312 L 132.351562 129.191406 C 97.125 127.753906 80.839844 103.511719 81.957031 79.910156 C 83.089844 56.058594 102.046875 32.625 137.667969 33.847656 Z M 137.667969 33.847656 "/></g><g clip-rule="nonzero" clip-path="url(#fa63d35b65)"><path style=" stroke:none;fill-rule:evenodd;fill:#2b0806;fill-opacity:1;" d="M 137.472656 33.59375 C 137.574219 33.183594 137.679688 32.773438 137.792969 32.367188 C 138.394531 30.203125 139.183594 28.164062 140.09375 26.230469 C 143.976562 18.007812 150.335938 11.839844 158.035156 7.625 C 165.402344 3.589844 174.019531 1.371094 182.859375 0.828125 C 195.878906 0.0351562 209.398438 2.910156 220.191406 9.039062 C 228.082031 13.519531 234.511719 19.734375 238.316406 27.492188 C 238.671875 28.226562 239.035156 28.945312 239.402344 29.648438 C 257.125 23.347656 272.101562 24.996094 283.496094 31.160156 C 301.101562 40.695312 310.210938 61.125 307.65625 80.5 C 304.890625 101.476562 288.539062 121.351562 254.367188 124.371094 L 254.367188 151.199219 C 254.367188 151.957031 253.964844 152.660156 253.308594 153.042969 C 252.65625 153.421875 251.847656 153.425781 251.1875 153.054688 C 213.992188 131.992188 175.347656 131.898438 135.226562 153.082031 C 134.566406 153.433594 133.769531 153.410156 133.132812 153.023438 C 132.492188 152.636719 132.101562 151.945312 132.101562 151.199219 L 132.101562 129.4375 C 96.863281 127.890625 80.585938 103.570312 81.710938 79.902344 C 82.84375 55.980469 101.8125 32.460938 137.472656 33.59375 Z M 175.410156 96.582031 C 162.441406 98.75 149.425781 103.222656 136.363281 109.972656 L 136.363281 147.703125 C 175.640625 127.980469 213.542969 128.070312 250.105469 147.597656 L 250.105469 112.753906 C 220.511719 127.476562 192.3125 117.726562 175.722656 96.898438 C 175.609375 96.804688 175.503906 96.699219 175.410156 96.582031 Z M 267.980469 50.101562 C 261.5625 51.765625 255.996094 51.113281 251.066406 48.617188 C 248.796875 47.46875 246.675781 45.914062 244.695312 43.996094 C 240.894531 40.316406 237.644531 35.28125 234.644531 29.300781 C 231.164062 22.300781 225.269531 16.746094 218.113281 12.710938 C 207.984375 7.003906 195.316406 4.351562 183.117188 5.09375 C 174.910156 5.589844 166.917969 7.636719 160.046875 11.332031 C 153.0625 15.089844 147.253906 20.566406 143.617188 27.933594 C 142.757812 29.667969 142.027344 31.511719 141.402344 33.449219 C 140.808594 35.296875 140.296875 37.226562 139.933594 39.265625 C 139.347656 42.390625 139.296875 46.972656 139.636719 51.449219 C 140 56.222656 140.789062 60.859375 141.933594 63.5 C 142.101562 63.863281 141.949219 64.296875 141.585938 64.472656 C 141.222656 64.648438 140.785156 64.496094 140.609375 64.132812 C 139.191406 61.476562 137.945312 56.695312 137.179688 51.730469 C 136.453125 47.003906 136.1875 42.132812 136.5625 38.761719 C 136.597656 38.453125 136.636719 38.144531 136.679688 37.835938 C 104.378906 37.105469 87 58.296875 85.964844 80.105469 C 84.941406 101.710938 100.003906 123.660156 132.101562 125.171875 L 132.101562 120.136719 C 129.644531 120.667969 127.351562 120.867188 125.222656 120.65625 C 123.441406 120.476562 121.773438 120.050781 120.238281 119.355469 C 118.324219 118.484375 116.609375 117.265625 115.105469 115.671875 C 113.792969 114.273438 112.65625 112.644531 111.65625 110.726562 C 111.402344 110.335938 111.507812 109.808594 111.898438 109.546875 C 112.289062 109.285156 112.816406 109.386719 113.085938 109.769531 C 114.078125 110.941406 115.125 111.917969 116.210938 112.792969 C 117.898438 114.148438 119.699219 115.046875 121.644531 115.648438 C 122.890625 116.027344 124.191406 116.238281 125.570312 116.324219 C 127.46875 116.441406 129.507812 116.308594 131.710938 115.804688 L 132.101562 115.710938 L 132.101562 110.902344 L 130.84375 110.625 L 130.835938 110.625 C 126.476562 109.484375 122.710938 107.742188 119.589844 105.335938 C 117.359375 103.621094 115.4375 101.582031 113.859375 99.230469 C 112.039062 96.511719 110.652344 93.390625 109.695312 89.886719 C 108.871094 86.878906 108.375 83.605469 108.164062 80.042969 C 108.113281 79.578125 108.445312 79.152344 108.914062 79.09375 C 109.382812 79.035156 109.808594 79.363281 109.875 79.832031 C 110.382812 82.46875 111.058594 84.898438 111.855469 87.175781 C 113.171875 90.933594 114.921875 94.144531 117.082031 96.890625 C 118.574219 98.792969 120.273438 100.441406 122.207031 101.867188 C 124.953125 103.890625 128.164062 105.457031 131.929688 106.460938 L 133.269531 106.78125 C 146.476562 99.828125 159.632812 95.140625 172.742188 92.722656 C 172.257812 91.941406 171.769531 91.089844 171.289062 90.175781 C 170.234375 88.152344 169.230469 85.808594 168.425781 83.171875 C 167.921875 81.511719 167.476562 79.746094 167.199219 77.859375 C 167.027344 76.691406 166.875 75.488281 166.878906 74.238281 C 166.878906 72.304688 167.15625 70.363281 167.539062 68.28125 C 167.5625 67.875 167.898438 67.5625 168.300781 67.574219 C 168.707031 67.585938 169.027344 67.914062 169.027344 68.320312 C 169.285156 70.308594 169.753906 72.09375 170.152344 73.878906 C 170.402344 75.003906 170.617188 76.089844 170.875 77.140625 C 171.289062 78.828125 171.75 80.414062 172.28125 81.898438 C 173.117188 84.253906 174.105469 86.335938 175.085938 88.160156 C 176.265625 90.347656 177.445312 92.148438 178.445312 93.523438 C 178.542969 93.605469 178.628906 93.703125 178.710938 93.804688 C 194.242188 113.667969 221.039062 122.894531 249.074219 108.503906 C 249.128906 108.46875 249.183594 108.4375 249.242188 108.410156 C 249.277344 108.394531 249.308594 108.378906 249.339844 108.363281 C 249.863281 108.09375 250.390625 107.808594 250.914062 107.519531 C 252.808594 106.425781 255.402344 104.621094 258.109375 101.816406 C 259.660156 100.203125 261.25 98.273438 262.78125 95.953125 C 264.351562 93.566406 265.855469 90.789062 267.21875 87.527344 C 268.363281 84.78125 269.46875 81.765625 270.324219 78.304688 C 270.402344 77.875 270.816406 77.585938 271.25 77.660156 C 271.679688 77.730469 271.972656 78.140625 271.90625 78.574219 C 271.574219 82.265625 271.011719 85.578125 270.171875 88.550781 C 269.132812 92.234375 267.726562 95.367188 266.195312 98.050781 C 264.652344 100.742188 262.945312 102.960938 261.246094 104.785156 C 258.804688 107.414062 256.371094 109.222656 254.367188 110.464844 L 254.367188 113.953125 C 256.765625 113.453125 258.828125 112.6875 260.648438 111.828125 C 262.0625 111.160156 263.332031 110.457031 264.445312 109.582031 C 266.460938 107.996094 268.035156 106.105469 269.101562 103.675781 C 269.25 103.234375 269.730469 102.984375 270.175781 103.125 C 270.625 103.265625 270.882812 103.738281 270.75 104.1875 C 270.402344 106.082031 269.796875 107.800781 268.917969 109.402344 C 268.003906 111.058594 266.785156 112.519531 265.261719 113.8125 C 264.148438 114.753906 262.855469 115.566406 261.398438 116.253906 C 259.550781 117.128906 257.417969 117.742188 255.039062 118.21875 L 254.367188 118.328125 L 254.367188 120.089844 C 285.652344 117.1875 300.886719 99.230469 303.429688 79.9375 C 305.761719 62.273438 297.523438 43.601562 281.464844 34.910156 C 271.117188 29.308594 257.554688 27.898438 241.527344 33.417969 C 243.363281 36.433594 245.328125 39.066406 247.433594 41.265625 C 249.101562 43.003906 250.835938 44.480469 252.730469 45.640625 C 256.929688 48.21875 261.777344 49.28125 267.625 48.375 C 268.097656 48.285156 268.558594 48.585938 268.65625 49.058594 C 268.753906 49.535156 268.449219 50 267.980469 50.101562 Z M 267.980469 50.101562 "/></g><g clip-rule="nonzero" clip-path="url(#7563ba82ad)"><path style=" stroke:none;fill-rule:nonzero;fill:#ffffff;fill-opacity:1;" d="M 87.773438 325.246094 C 87.773438 325.246094 86.371094 325.246094 84.675781 315.957031 C 82.570312 304.328125 87.304688 282.820312 88.007812 281.128906 C 83.15625 277.445312 64.222656 259.796875 65.15625 235.371094 C 66.09375 210.945312 84.382812 186.285156 84.382812 186.285156 C 84.382812 186.285156 87.128906 134.449219 114.59375 105.054688 C 124.589844 106.050781 152.8125 130.359375 157.957031 134.917969 C 170.929688 130.945312 207.976562 131.46875 221.710938 134.800781 C 221.710938 134.800781 240.46875 113.296875 266.414062 106.285156 C 270.796875 107.859375 300.308594 157.300781 294.816406 186.808594 C 303.640625 194.875 333.851562 240.6875 292.363281 283.347656 C 300.308594 305.613281 295.285156 325.304688 295.285156 325.304688 Z M 87.773438 325.246094 C 87.773438 325.246094 84.675781 323.667969 83.859375 318.058594 C 82.046875 305.730469 87.1875 283.289062 88.007812 281.1875 C 83.15625 277.503906 64.222656 259.855469 65.15625 235.429688 C 66.09375 211.003906 84.382812 186.34375 84.382812 186.34375 C 84.382812 186.34375 85.960938 135.675781 113.425781 106.285156 C 123.417969 107.277344 152.8125 130.417969 157.957031 134.976562 C 170.929688 131.003906 207.976562 131.527344 221.710938 134.859375 C 221.710938 134.859375 238.890625 113.355469 264.777344 106.339844 C 269.160156 107.917969 300.25 157.355469 294.757812 186.867188 C 303.582031 194.933594 333.792969 240.746094 292.304688 283.40625 C 300.25 305.671875 294.699219 325.363281 294.699219 325.363281 L 87.773438 325.363281 Z M 87.773438 325.246094 "/></g><g clip-rule="nonzero" clip-path="url(#f429d88739)"><path style=" stroke:none;fill-rule:nonzero;fill:#ec4899;fill-opacity:1;" d="M 175.371094 132.988281 C 175.371094 132.988281 209.671875 171.148438 165.144531 206.328125 C 120.613281 241.507812 64.164062 223.742188 71.820312 208.605469 C 71.820312 208.605469 79.242188 189.789062 86.195312 185.40625 C 81.929688 174.128906 91.980469 142.632812 101.15625 123.988281 C 101.15625 123.988281 110.386719 106.339844 114.59375 105.113281 C 118.804688 103.886719 145.976562 122.820312 156.960938 132.871094 C 163.976562 133.75 175.371094 132.988281 175.371094 132.988281 Z M 276.175781 325.246094 C 276.175781 325.246094 292.652344 320.804688 300.894531 305.554688 C 291.132812 281.476562 280.558594 248.519531 271.558594 242.324219 C 262.558594 236.128906 260.105469 241.390625 256.421875 246.941406 C 253.035156 240.6875 243.097656 235.898438 240 246.941406 C 236.144531 241.742188 224.515625 240.980469 224.984375 259.738281 C 225.507812 278.496094 235.675781 325.246094 235.675781 325.246094 Z M 276.175781 325.246094 "/></g><g clip-rule="nonzero" clip-path="url(#11c74175b6)"><g mask="url(#28f67ba7f7)" transform="matrix(1,0,0,1,64,106)"><g clip-path="url(#66dbbf9b2c)"><g clip-rule="nonzero" clip-path="url(#327a50008d)"><path style=" stroke:none;fill-rule:nonzero;fill:#ef5454;fill-opacity:1;" d="M 48.726562 48.902344 C 48.726562 48.902344 40.3125 61.816406 33.472656 73.503906 C 33.296875 33.359375 53.167969 15.886719 53.167969 15.886719 C 48.082031 26.753906 48.726562 48.902344 48.726562 48.902344 Z M 202.824219 48.902344 C 202.824219 48.902344 210.421875 61.816406 217.316406 73.503906 C 217.492188 33.359375 197.625 15.886719 197.625 15.886719 C 202.707031 26.753906 202.824219 48.902344 202.824219 48.902344 Z M 33.472656 153.273438 C 0.75 127.851562 13.546875 92.378906 13.546875 92.378906 C -4.453125 111.722656 -2.757812 152.570312 18.222656 173.082031 C 19.742188 174.542969 21.378906 175.945312 23.1875 177.230469 C 26.285156 169.75 30.550781 159.992188 33.472656 153.273438 Z M 86.359375 184.652344 L 84.546875 196.164062 C 95.882812 197.160156 105.820312 196.925781 111.953125 195.582031 C 106.402344 193.066406 97.34375 189.679688 86.359375 184.652344 Z M 166.417969 183.542969 C 154.320312 189.152344 144.328125 192.890625 138.367188 195.582031 C 144.796875 196.984375 155.375 197.214844 167.292969 196.046875 Z M 236.835938 92.378906 C 236.835938 92.378906 249.457031 127.382812 217.492188 152.746094 C 220.179688 159.289062 224.679688 170.042969 227.835938 176.707031 C 229.355469 175.535156 230.816406 174.308594 232.101562 173.082031 C 253.140625 152.570312 254.832031 111.722656 236.835938 92.378906 Z M 200.253906 136.382812 C 200.253906 136.382812 210.011719 147.371094 213.050781 177.289062 C 216.089844 207.210938 205.746094 219.246094 205.746094 219.246094 L 236.835938 219.246094 C 236.835938 219.246094 240.515625 212.996094 237.417969 203.527344 C 234.378906 194.0625 215.214844 141.992188 205.6875 136.324219 C 196.222656 130.65625 200.253906 136.382812 200.253906 136.382812 Z M 44.34375 136.265625 C 34.816406 141.933594 15.648438 194.0625 12.613281 203.46875 C 9.574219 212.9375 13.195312 219.1875 13.195312 219.1875 L 44.285156 219.1875 C 44.285156 219.1875 33.882812 207.09375 36.980469 177.230469 C 40.019531 147.3125 49.777344 136.324219 49.777344 136.324219 C 49.777344 136.324219 53.867188 130.65625 44.34375 136.265625 Z M 137.433594 155.785156 C 137.433594 155.785156 129.195312 160.109375 117.332031 155.785156 C 123.058594 167.003906 134.042969 164.726562 137.433594 155.785156 Z M 171.503906 32.65625 C 171.503906 32.65625 188.15625 9.984375 201.890625 2.269531 C 202.414062 0.285156 195.050781 -1.351562 183.191406 7.820312 C 171.328125 16.996094 157.710938 28.859375 157.710938 28.859375 Z M 94.074219 28.859375 C 94.074219 28.859375 80.457031 16.996094 68.59375 7.820312 C 56.730469 -1.351562 49.367188 0.285156 49.894531 2.269531 C 63.628906 9.984375 80.28125 32.65625 80.28125 32.65625 Z M 94.074219 28.859375 "/></g></g><mask id="28f67ba7f7"><g filter="url(#b53130d50a)"><rect x="0" width="375" y="0" height="374.999991" style="fill:#000000;fill-opacity:0.3;stroke:none;"/></g></mask></g></g><g clip-rule="nonzero" clip-path="url(#78cb0d5987)"><path style=" stroke:none;fill-rule:nonzero;fill:#ffffff;fill-opacity:1;" d="M 113.367188 106.285156 C 113.367188 106.285156 92.332031 145.320312 93.792969 188.503906 C 81.285156 198.4375 74.742188 208.605469 68.078125 225.671875 C 67.847656 215.328125 74.039062 203.523438 84.324219 186.34375 C 85.902344 164.371094 98.992188 119.605469 113.367188 106.285156 Z M 84.851562 280.894531 C 84.851562 280.894531 87.011719 281.128906 88.707031 273.355469 C 67.554688 252.140625 67.730469 226.722656 67.730469 226.722656 C 56.683594 251.03125 84.851562 280.894531 84.851562 280.894531 Z M 80.46875 325.246094 C 81.929688 325.246094 85.203125 325.246094 87.773438 325.246094 C 79.066406 314.378906 88.707031 287.613281 88.707031 287.613281 C 72.054688 309.527344 76.496094 325.246094 80.46875 325.246094 Z M 291.25 287.613281 C 291.25 287.613281 300.835938 314.378906 292.1875 325.246094 C 295.167969 325.246094 297.5625 325.246094 299.082031 325.246094 C 302.003906 324.3125 302.472656 324.195312 302.472656 324.195312 C 302.472656 324.195312 307.90625 309.527344 291.25 287.613281 Z M 311.585938 226.78125 C 311.585938 226.78125 311.761719 252.199219 290.609375 273.414062 C 292.304688 281.1875 294.875 283.464844 294.875 283.464844 C 294.875 283.464844 322.632812 251.03125 311.585938 226.78125 Z M 311.585938 226.78125 "/></g><g clip-rule="nonzero" clip-path="url(#2d6e3614dc)"><path style=" stroke:none;fill-rule:nonzero;fill:#2b0806;fill-opacity:1;" d="M 248.941406 173.3125 C 240.878906 173.71875 214.992188 183.246094 215.109375 186.226562 C 215.339844 191.71875 234.15625 198.90625 247.480469 204.398438 C 260.804688 209.890625 258.058594 202.472656 251.105469 198.03125 C 253.617188 199.492188 258.585938 198.554688 254.785156 195.050781 C 252.15625 192.652344 236.085938 186.167969 236.085938 186.167969 C 236.085938 186.167969 244.734375 184.0625 250.871094 182.367188 C 256.65625 180.789062 255.664062 178.277344 250.113281 178.570312 C 252.800781 177.753906 255.957031 172.960938 248.941406 173.3125 Z M 210.023438 198.320312 C 208.269531 201.945312 204.414062 205.042969 200.613281 203.582031 C 196.816406 202.121094 194.128906 195.984375 189.804688 195.984375 C 185.480469 195.984375 182.851562 202.121094 178.992188 203.582031 C 175.195312 205.042969 171.339844 201.945312 169.585938 198.320312 C 164.265625 201.183594 155.441406 208.839844 156.027344 224.152344 C 156.613281 239.460938 167.363281 251.5 189.804688 251.5 C 212.1875 251.5 222.996094 239.402344 223.582031 224.152344 C 224.105469 208.839844 215.28125 201.183594 210.023438 198.320312 Z M 132.125 204.398438 C 145.449219 198.90625 164.265625 191.71875 164.5 186.226562 C 164.617188 183.246094 138.671875 173.71875 130.664062 173.3125 C 123.652344 172.960938 126.808594 177.753906 129.554688 178.628906 C 124.003906 178.277344 123.011719 180.847656 128.796875 182.425781 C 134.933594 184.121094 143.582031 186.226562 143.582031 186.226562 C 143.582031 186.226562 127.511719 192.710938 124.878906 195.109375 C 121.082031 198.613281 126.050781 199.550781 128.5625 198.089844 C 121.550781 202.472656 118.804688 209.890625 132.125 204.398438 Z M 261.683594 121.828125 C 261.683594 121.828125 266.707031 142.863281 263.960938 160.164062 C 268.050781 161.914062 281.316406 179.503906 281.316406 179.503906 C 281.316406 179.503906 279.039062 167.699219 269.628906 157.648438 C 271.734375 146.195312 268.050781 127.789062 261.683594 121.828125 Z M 294.875 283.40625 C 334.4375 244.839844 309.835938 202.585938 297.621094 186.691406 C 296.277344 134.917969 271.089844 101.726562 264.722656 102.484375 C 243.15625 108.269531 222.355469 129.425781 219.375 132.578125 C 206.925781 129.308594 195.472656 128.957031 189.804688 129.074219 C 184.136719 129.015625 172.683594 129.308594 160.234375 132.578125 C 157.195312 129.425781 136.449219 108.269531 114.886719 102.484375 C 108.460938 101.726562 83.332031 134.917969 81.988281 186.691406 C 69.832031 202.53125 45.230469 244.78125 84.734375 283.40625 L 84.675781 283.582031 C 81.8125 290.476562 78.949219 297.605469 76.320312 304.445312 C 75.382812 306.957031 71.761719 317.359375 72.8125 325.246094 C 74.683594 325.246094 80.292969 325.246094 80.527344 325.246094 C 77.957031 322.5 80.46875 311.105469 81.695312 307.484375 C 86.078125 294.449219 92.390625 277.445312 96.890625 267.21875 C 104.835938 249.046875 111.265625 241.214844 117.402344 242.441406 C 121.316406 243.203125 123.710938 251.03125 123.710938 251.03125 C 123.710938 251.03125 128.328125 242.382812 133.703125 243.261719 C 138.027344 243.960938 137.796875 248.636719 137.5625 253.019531 C 141.007812 245.128906 150.183594 243.027344 151.9375 253.546875 C 153.105469 260.675781 142.003906 315.898438 141.007812 325.246094 C 141.007812 325.246094 145.101562 325.246094 147.613281 325.246094 C 148.195312 319.285156 152.988281 287.90625 154.683594 275.457031 C 156.496094 262.019531 157.722656 255.414062 155.558594 249.453125 C 151.175781 237.417969 142.0625 240.980469 140.25 244.664062 C 141.300781 236.074219 129.789062 234.667969 124.707031 243.378906 C 122.074219 233.265625 110.503906 232.214844 100.746094 249.21875 C 97.007812 255.765625 92.097656 266.285156 87.070312 278.089844 C 78.128906 269.558594 48.035156 235.488281 87.128906 187.453125 C 87.128906 175.238281 92.972656 135.734375 113.835938 108.269531 C 117.34375 106.515625 135.867188 116.976562 154.742188 134.332031 C 151.234375 135.5 147.671875 136.90625 144.222656 138.65625 C 145.507812 140.175781 163.097656 134.507812 189.863281 134.507812 C 216.628906 134.507812 234.214844 140.175781 235.503906 138.65625 C 232.054688 136.90625 228.488281 135.5 224.984375 134.332031 C 243.859375 116.976562 262.441406 106.515625 265.890625 108.269531 C 286.75 135.734375 292.59375 175.296875 292.59375 187.453125 C 331.691406 235.488281 301.59375 269.558594 292.652344 278.089844 C 287.628906 266.34375 282.71875 255.765625 278.980469 249.21875 C 269.21875 232.273438 257.648438 233.324219 255.019531 243.378906 C 249.9375 234.667969 238.425781 236.074219 239.476562 244.664062 C 237.605469 241.039062 228.546875 237.417969 224.164062 249.453125 C 222.003906 255.414062 223.171875 262.019531 225.042969 275.457031 C 226.738281 287.90625 231.527344 319.285156 232.113281 325.246094 C 234.566406 325.246094 238.714844 325.246094 238.714844 325.246094 C 237.78125 315.898438 226.621094 260.734375 227.789062 253.546875 C 229.542969 242.96875 238.65625 245.070312 242.164062 253.019531 C 241.871094 248.636719 241.636719 243.960938 246.019531 243.261719 C 251.398438 242.382812 256.015625 251.03125 256.015625 251.03125 C 256.015625 251.03125 258.410156 243.203125 262.324219 242.441406 C 268.460938 241.214844 274.832031 249.046875 282.835938 267.21875 C 287.335938 277.445312 293.648438 294.449219 298.03125 307.484375 C 299.257812 311.105469 301.769531 322.5 299.199219 325.246094 C 299.433594 325.246094 305.042969 325.246094 306.914062 325.246094 C 307.964844 317.359375 304.339844 306.957031 303.40625 304.445312 C 300.660156 297.546875 297.738281 290.359375 294.875 283.40625 Z M 74.800781 163.550781 C 67.085938 156.890625 59.429688 150.226562 51.777344 143.566406 C 49.964844 141.988281 44.878906 144.675781 47.335938 146.78125 C 54.988281 153.441406 62.644531 160.105469 70.300781 166.765625 C 72.171875 168.34375 77.195312 165.65625 74.800781 163.550781 Z M 66.851562 173.3125 C 56.273438 169.921875 45.699219 166.589844 35.121094 163.199219 C 32.667969 162.441406 28.34375 165.949219 31.789062 167.058594 C 42.367188 170.449219 52.945312 173.777344 63.523438 177.167969 C 65.976562 177.925781 70.300781 174.363281 66.851562 173.3125 Z M 64.339844 185.523438 C 57.210938 187.394531 50.140625 189.324219 43.011719 191.191406 C 39.503906 192.128906 40.378906 195.457031 43.886719 194.523438 C 51.015625 192.652344 58.085938 190.726562 65.214844 188.855469 C 68.722656 187.921875 67.847656 184.589844 64.339844 185.523438 Z M 109.101562 157.648438 C 99.753906 167.699219 97.414062 179.503906 97.414062 179.503906 C 97.414062 179.503906 110.679688 161.914062 114.769531 160.164062 C 112.023438 142.863281 117.050781 121.828125 117.050781 121.828125 C 110.738281 127.789062 107.058594 146.195312 109.101562 157.648438 Z M 109.101562 157.648438 "/></g><path style=" stroke:none;fill-rule:nonzero;fill:#ef5454;fill-opacity:1;" d="M 218.671875 217.371094 C 218.90625 219.007812 219.023438 220.761719 218.90625 222.691406 C 218.378906 236.246094 208.855469 246.941406 188.984375 246.941406 C 180.511719 246.941406 173.96875 245.011719 169.175781 241.742188 C 184.546875 216.789062 211.542969 216.847656 218.671875 217.371094 Z M 218.671875 217.371094 C 218.90625 219.007812 219.023438 220.761719 218.90625 222.691406 C 218.378906 236.246094 208.855469 246.941406 188.984375 246.941406 C 180.511719 246.941406 173.96875 245.011719 169.175781 241.742188 C 184.546875 216.789062 211.542969 216.847656 218.671875 217.371094 Z M 218.671875 217.371094 "/></g></svg>