<svg xmlns="http://www.w3.org/2000/svg" xmlns:xlink="http://www.w3.org/1999/xlink" width="500" zoomAndPan="magnify" viewBox="0 0 375 374.999991" height="500" preserveAspectRatio="xMidYMid meet" version="1.2"><defs><clipPath id="da1d71894c"><path d="M 16 39 L 326 39 L 326 258.75 L 16 258.75 Z M 16 39 "/></clipPath><clipPath id="67ec72851a"><path d="M 104 313 L 250 313 L 250 360.753906 L 104 360.753906 Z M 104 313 "/></clipPath><clipPath id="50cdd4e145"><path d="M 93.347656 306.003906 L 116 306.003906 L 116 321 L 93.347656 321 Z M 93.347656 306.003906 "/></clipPath><clipPath id="fc4116e48f"><path d="M 238 306.003906 L 260.597656 306.003906 L 260.597656 321 L 238 321 Z M 238 306.003906 "/></clipPath></defs><g id="de10fbd163"><g clip-rule="nonzero" clip-path="url(#da1d71894c)"><path style=" stroke:none;fill-rule:evenodd;fill:#000000;fill-opacity:1;" d="M 239.113281 65.902344 C 311.566406 47.992188 334.640625 118.988281 271.101562 169.398438 C 215.613281 158.808594 172.582031 148.097656 119.007812 174.5 C 170.480469 163.746094 221.191406 172.5 280.464844 188.800781 C 374.996094 106.449219 307.425781 -0.0664062 203.683594 55.292969 C 172.246094 72.066406 151.355469 92.335938 124.886719 106.136719 C 33.160156 66.40625 0.0234375 127.507812 35.691406 136.554688 C 96.707031 152.027344 183.324219 79.691406 239.113281 65.902344 M 17.523438 125.109375 C 10.726562 151.292969 29.996094 184.148438 73.65625 187.050781 L 79.160156 234.191406 C 119.503906 218.5 166.035156 210.492188 206.886719 209.6875 C 171.511719 214.675781 121.269531 230.585938 94.785156 259.445312 C 145.824219 230.523438 208.835938 215.113281 267.484375 214.671875 C 210.695312 192.386719 149.910156 193.53125 92.730469 213.042969 L 89.332031 174.4375 C 45.0625 179.605469 24.410156 162.40625 17.523438 125.109375 Z M 214.394531 86.933594 C 278.699219 74.851562 299.027344 106.875 272.582031 158.140625 C 321.160156 94.101562 276.210938 58.460938 214.394531 86.933594 Z M 117.640625 109.675781 C 115.050781 110.894531 114.007812 111.304688 111.28125 112.382812 C 0.273438 156.421875 27.09375 79.597656 117.640625 109.675781 Z M 117.640625 109.675781 "/></g><g clip-rule="nonzero" clip-path="url(#67ec72851a)"><path style=" stroke:none;fill-rule:nonzero;fill:#000000;fill-opacity:1;" d="M 247.378906 313.746094 C 237.648438 324.074219 226.566406 331.699219 214.574219 336.765625 C 202.578125 341.828125 189.835938 344.296875 177.019531 344.332031 C 164.203125 344.296875 151.4375 341.84375 139.464844 336.765625 C 127.492188 331.683594 116.386719 324.082031 106.65625 313.753906 L 106.65625 313.746094 C 106.488281 313.566406 106.28125 313.457031 106.035156 313.425781 C 105.792969 313.390625 105.566406 313.441406 105.355469 313.570312 C 105.144531 313.699219 104.996094 313.878906 104.914062 314.113281 C 104.832031 314.347656 104.832031 314.578125 104.914062 314.8125 C 109.753906 328.695312 120.390625 340.625 133.324219 348.578125 C 146.300781 356.597656 161.707031 360.738281 177.023438 360.75 C 192.335938 360.761719 207.742188 356.597656 220.71875 348.578125 C 233.652344 340.617188 244.289062 328.699219 249.128906 314.8125 C 249.214844 314.578125 249.214844 314.34375 249.128906 314.113281 C 249.046875 313.878906 248.902344 313.695312 248.691406 313.566406 C 248.480469 313.4375 248.25 313.390625 248.007812 313.425781 C 247.761719 313.457031 247.554688 313.566406 247.386719 313.746094 Z M 247.378906 313.746094 "/></g><g clip-rule="nonzero" clip-path="url(#50cdd4e145)"><path style=" stroke:none;fill-rule:nonzero;fill:#000000;fill-opacity:1;" d="M 111.210938 310.921875 C 112.171875 310.6875 113.167969 310.53125 114.238281 310.144531 L 114.386719 310.089844 C 114.585938 310.019531 114.75 309.898438 114.878906 309.734375 C 115.007812 309.566406 115.082031 309.375 115.101562 309.167969 C 115.121094 308.957031 115.085938 308.753906 114.988281 308.566406 C 114.894531 308.378906 114.757812 308.230469 114.574219 308.121094 C 113.566406 307.53125 112.503906 307.054688 111.394531 306.691406 C 110.261719 306.476562 109.101562 306.113281 107.890625 306.144531 C 105.476562 306.007812 102.949219 306.652344 100.691406 307.808594 C 98.394531 309.011719 96.601562 310.742188 95.3125 313 C 94.089844 315.15625 93.445312 317.511719 93.71875 320.03125 C 93.742188 320.238281 93.816406 320.421875 93.945312 320.585938 C 94.074219 320.746094 94.238281 320.863281 94.433594 320.929688 C 94.628906 321 94.828125 321.011719 95.027344 320.964844 C 95.230469 320.917969 95.402344 320.820312 95.550781 320.671875 L 95.699219 320.515625 C 97.148438 319.039062 98.445312 317.613281 99.769531 316.476562 C 101.011719 315.367188 102.359375 314.410156 103.816406 313.605469 C 105.238281 312.875 106.734375 312.15625 108.480469 311.691406 C 109.335938 311.359375 110.273438 311.230469 111.210938 310.921875 Z M 111.210938 310.921875 "/></g><g clip-rule="nonzero" clip-path="url(#fc4116e48f)"><path style=" stroke:none;fill-rule:nonzero;fill:#000000;fill-opacity:1;" d="M 258.609375 313 C 257.320312 310.742188 255.527344 309.011719 253.230469 307.808594 C 250.972656 306.652344 248.445312 306.007812 246.03125 306.144531 C 244.820312 306.113281 243.664062 306.476562 242.527344 306.691406 C 241.417969 307.054688 240.359375 307.53125 239.347656 308.121094 C 239.167969 308.230469 239.027344 308.378906 238.933594 308.566406 C 238.839844 308.757812 238.800781 308.957031 238.820312 309.167969 C 238.839844 309.378906 238.917969 309.566406 239.046875 309.734375 C 239.175781 309.902344 239.339844 310.019531 239.539062 310.089844 L 239.683594 310.144531 C 240.753906 310.53125 241.75 310.6875 242.710938 310.921875 C 243.648438 311.230469 244.589844 311.359375 245.429688 311.691406 C 247.179688 312.15625 248.667969 312.875 250.097656 313.605469 C 251.554688 314.410156 252.902344 315.367188 254.144531 316.476562 C 255.472656 317.613281 256.769531 319.039062 258.210938 320.515625 L 258.363281 320.671875 C 258.507812 320.820312 258.683594 320.917969 258.882812 320.964844 C 259.085938 321.011719 259.285156 321 259.480469 320.929688 C 259.675781 320.863281 259.835938 320.746094 259.964844 320.585938 C 260.09375 320.421875 260.171875 320.238281 260.195312 320.03125 C 260.476562 317.515625 259.835938 315.15625 258.609375 313 Z M 258.609375 313 "/></g></g></svg>